<svg width="46" height="41" viewBox="0 0 46 41" fill="none" xmlns="http://www.w3.org/2000/svg">
<path d="M13.9651 20.3962H13.9844M22.5294 20.3962H22.5508M31.0958 20.3962H31.1151" stroke="#F9AB00" stroke-width="2.94" stroke-linecap="round" stroke-linejoin="round"/>
<path d="M35.4025 39.69C38.0436 39.69 40.1852 37.2226 40.1852 34.1785C40.1852 29.3593 39.9709 26.1544 43.2765 22.345C44.2112 21.2688 44.2112 19.5238 43.2765 18.4476C39.9709 14.6382 40.1852 11.4333 40.1852 6.61412C40.1852 3.57 38.0436 1.10254 35.4025 1.10254M9.67754 39.69C7.03644 39.69 4.89483 37.2226 4.89483 34.1785C4.89483 29.3593 5.10921 26.1544 1.80355 22.345C0.86887 21.2688 0.86887 19.5238 1.80355 18.4476C5.03632 14.7196 4.89483 11.4783 4.89483 6.61198C4.89483 3.57 7.03644 1.10254 9.67754 1.10254" stroke="#F9AB00" stroke-width="2.205" stroke-linecap="round" stroke-linejoin="round"/>
</svg>
