<svg width="49" height="49" viewBox="0 0 49 49" fill="none" xmlns="http://www.w3.org/2000/svg">
<path d="M14.2917 36.75V34.7083C14.2917 32.0009 15.3673 29.4044 17.2817 27.49C19.1961 25.5755 21.7927 24.5 24.5001 24.5M24.5001 24.5C27.2075 24.5 29.804 25.5755 31.7185 27.49C33.6329 29.4044 34.7084 32.0009 34.7084 34.7083V36.75M24.5001 24.5C26.1245 24.5 27.6825 23.8547 28.8311 22.706C29.9798 21.5574 30.6251 19.9995 30.6251 18.375C30.6251 16.7505 29.9798 15.1926 28.8311 14.044C27.6825 12.8953 26.1245 12.25 24.5001 12.25C22.8756 12.25 21.3177 12.8953 20.1691 14.044C19.0204 15.1926 18.3751 16.7505 18.3751 18.375C18.3751 19.9995 19.0204 21.5574 20.1691 22.706C21.3177 23.8547 22.8756 24.5 24.5001 24.5ZM2.04175 36.75V34.7083C2.04175 33.0839 2.68706 31.526 3.83572 30.3773C4.98438 29.2286 6.5423 28.5833 8.16675 28.5833M8.16675 28.5833C9.24972 28.5833 10.2883 28.1531 11.0541 27.3874C11.8199 26.6216 12.2501 25.583 12.2501 24.5C12.2501 23.417 11.8199 22.3784 11.0541 21.6126C10.2883 20.8469 9.24972 20.4167 8.16675 20.4167C7.08378 20.4167 6.04517 20.8469 5.2794 21.6126C4.51362 22.3784 4.08341 23.417 4.08341 24.5C4.08341 25.583 4.51362 26.6216 5.2794 27.3874C6.04517 28.1531 7.08378 28.5833 8.16675 28.5833ZM46.9584 36.75V34.7083C46.9584 33.0839 46.3131 31.526 45.1644 30.3773C44.0158 29.2286 42.4579 28.5833 40.8334 28.5833M40.8334 28.5833C41.9164 28.5833 42.955 28.1531 43.7208 27.3874C44.4865 26.6216 44.9167 25.583 44.9167 24.5C44.9167 23.417 44.4865 22.3784 43.7208 21.6126C42.955 20.8469 41.9164 20.4167 40.8334 20.4167C39.7504 20.4167 38.7118 20.8469 37.9461 21.6126C37.1803 22.3784 36.7501 23.417 36.7501 24.5C36.7501 25.583 37.1803 26.6216 37.9461 27.3874C38.7118 28.1531 39.7504 28.5833 40.8334 28.5833Z" stroke="#EA4335" stroke-width="1.5" stroke-linecap="round" stroke-linejoin="round"/>
</svg>
