<svg width="67" height="67" viewBox="0 0 67 67" fill="none" xmlns="http://www.w3.org/2000/svg">
<path d="M32.0204 45.4428C32.413 45.8349 32.9451 46.0551 33.5 46.0551C34.0548 46.0551 34.587 45.8349 34.9796 45.4428L41.2608 39.1643C41.6306 38.7674 41.832 38.2424 41.8224 37.7C41.8129 37.1576 41.5931 36.6401 41.2095 36.2564C40.8259 35.8728 40.3084 35.6531 39.7659 35.6435C39.2235 35.634 38.6985 35.8353 38.3016 36.2051L33.5 40.9984L28.6983 36.1996C28.5051 35.9997 28.274 35.8403 28.0185 35.7307C27.763 35.6211 27.4882 35.5634 27.2102 35.5611C26.9322 35.5589 26.6565 35.612 26.3992 35.7174C26.142 35.8228 25.9083 35.9783 25.7118 36.175C25.5153 36.3717 25.3599 36.6055 25.2548 36.8629C25.1496 37.1203 25.0968 37.396 25.0993 37.674C25.1019 37.952 25.1598 38.2267 25.2696 38.4821C25.3795 38.7375 25.5391 38.9685 25.7391 39.1615L32.0204 45.4428ZM33.5 25.2786C32.9077 25.2786 32.3396 25.0433 31.9208 24.6244C31.5019 24.2056 31.2666 23.6375 31.2666 23.0452C31.2666 22.4529 31.5019 21.8848 31.9208 21.466C32.3396 21.0472 32.9077 20.8119 33.5 20.8119C34.0923 20.8119 34.6603 21.0472 35.0792 21.466C35.498 21.8848 35.7333 22.4529 35.7333 23.0452C35.7333 23.6375 35.498 24.2056 35.0792 24.6244C34.6603 25.0433 34.0923 25.2786 33.5 25.2786ZM31.2666 30.9066C31.2666 31.1998 31.3244 31.4903 31.4366 31.7612C31.5489 32.0322 31.7134 32.2784 31.9208 32.4858C32.1282 32.6931 32.3744 32.8577 32.6453 32.9699C32.9163 33.0821 33.2067 33.1399 33.5 33.1399C33.7933 33.1399 34.0837 33.0821 34.3546 32.9699C34.6256 32.8577 34.8718 32.6931 35.0792 32.4858C35.2866 32.2784 35.4511 32.0322 35.5633 31.7612C35.6755 31.4903 35.7333 31.1998 35.7333 30.9066C35.7333 30.3142 35.498 29.7462 35.0792 29.3274C34.6603 28.9085 34.0923 28.6732 33.5 28.6732C32.9077 28.6732 32.3396 28.9085 31.9208 29.3274C31.5019 29.7462 31.2666 30.3142 31.2666 30.9066Z" fill="#4285F4"/>
<path fill-rule="evenodd" clip-rule="evenodd" d="M33.5 5.58612C27.947 5.58612 22.6215 7.79203 18.695 11.7186C14.7684 15.6451 12.5625 20.9707 12.5625 26.5236V40.482C12.5625 46.0349 14.7684 51.3605 18.695 55.287C22.6215 59.2135 27.947 61.4195 33.5 61.4195C39.053 61.4195 44.3785 59.2135 48.305 55.287C52.2316 51.3605 54.4375 46.0349 54.4375 40.482V26.5236C54.4375 20.9707 52.2316 15.6451 48.305 11.7186C44.3785 7.79203 39.053 5.58612 33.5 5.58612ZM16.75 26.5236C16.75 22.0812 18.5147 17.8208 21.656 14.6796C24.7972 11.5383 29.0576 9.77362 33.5 9.77362C37.9424 9.77362 42.2028 11.5383 45.344 14.6796C48.4853 17.8208 50.25 22.0812 50.25 26.5236V40.482C50.25 44.9243 48.4853 49.1848 45.344 52.326C42.2028 55.4672 37.9424 57.232 33.5 57.232C29.0576 57.232 24.7972 55.4672 21.656 52.326C18.5147 49.1848 16.75 44.9243 16.75 40.482V26.5236Z" fill="#E7E7E7"/>
</svg>
